<svg xmlns="http://www.w3.org/2000/svg" version="1.1" xmlnsXlink="http://www.w3.org/1999/xlink" xmlnsSvgjs="http://svgjs.dev/svgjs" width="1000" height="550" viewBox="0 0 1000 550"><g transform="matrix(1,0,0,1,-0.6060606060606233,0.5546639300622473)"><svg viewBox="0 0 396 218" data-background-color="#ffffff" preserveAspectRatio="xMidYMid meet" height="550" width="1000" xmlns="http://www.w3.org/2000/svg" xmlns:xlink="http://www.w3.org/1999/xlink"><g id="tight-bounds" transform="matrix(1,0,0,1,0.2400000000000091,-0.2198486122792218)"><svg viewBox="0 0 395.52 218.43969722455844" height="218.43969722455844" width="395.52"><g><svg viewBox="0 0 395.52 218.43969722455844" height="218.43969722455844" width="395.52"><g><svg viewBox="0 0 395.52 218.43969722455844" height="218.43969722455844" width="395.52"><g id="textblocktransform"><svg viewBox="0 0 395.52 218.43969722455844" height="218.43969722455844" width="395.52" id="textblock"><g><svg viewBox="0 0 395.52 218.43969722455844" height="218.43969722455844" width="395.52"><g transform="matrix(1,0,0,1,0,0)"><svg width="395.52" viewBox="1.250000000000003 -39 179.09999999999994 88.7" height="218.43969722455844" data-palette-color="#fce44d"><svg></svg><svg></svg><g class="wordmark-text-0" data-fill-palette-color="primary" id="text-0"><path d="M15.95-1.2c0 0.367-1.017 0.657-3.05 0.87-2.033 0.22-4.073 0.33-6.12 0.33-2.053 0-3.363-0.093-3.93-0.28-0.567-0.18-0.85-0.487-0.85-0.92v0-31.1c0-0.733 0.967-1.46 2.9-2.18 1.933-0.713 4.1-1.07 6.5-1.07v0c2.133 0 3.533 0.45 4.2 1.35v0c0.233 0.333 0.35 0.667 0.35 1v0zM65.25-16.5v0 15.3c0 0.367-0.943 0.657-2.83 0.87-1.88 0.22-3.827 0.33-5.84 0.33-2.02 0-3.33-0.093-3.93-0.28-0.6-0.18-0.9-0.487-0.9-0.92v0-13.85c0-4.767-0.483-7.15-1.45-7.15v0c-0.233 0-0.467 0.1-0.7 0.3-0.233 0.2-0.35 0.55-0.35 1.05v0 19.65c0 0.367-0.943 0.657-2.83 0.87-1.88 0.22-3.837 0.33-5.87 0.33-2.033 0-3.34-0.093-3.92-0.28-0.587-0.18-0.88-0.487-0.88-0.92v0-13.85c0-3.7-0.233-5.917-0.7-6.65v0c-0.233-0.333-0.533-0.5-0.9-0.5v0c-0.633 0-0.95 0.45-0.95 1.35v0 19.65c0 0.367-0.95 0.657-2.85 0.87-1.9 0.22-3.857 0.33-5.87 0.33-2.02 0-3.323-0.093-3.91-0.28-0.58-0.18-0.87-0.487-0.87-0.92v0-24.65c0-0.7 0.957-1.4 2.87-2.1 1.92-0.7 3.947-1.05 6.08-1.05 2.133 0 3.333 0.617 3.6 1.85v0l0.45 2.2h0.35c0.967-1.9 2.567-3.25 4.8-4.05v0c0.933-0.3 2.133-0.45 3.6-0.45v0c2.933 0 5.067 1.5 6.4 4.5v0c0.433-1 1.517-2 3.25-3 1.733-1 3.65-1.5 5.75-1.5v0c3.3 0 5.527 1.023 6.68 3.07 1.147 2.053 1.72 5.347 1.72 9.88zM68.75 6.05v0-31.8c0-0.7 0.933-1.417 2.8-2.15 1.867-0.733 3.883-1.1 6.05-1.1v0c1 0 1.783 0.117 2.35 0.35 0.567 0.233 0.917 0.467 1.05 0.7v0c0.133 0.233 0.383 1.233 0.75 3v0h0.4c0.067-0.3 0.367-0.767 0.9-1.4 0.533-0.633 1.073-1.15 1.62-1.55 0.553-0.4 1.347-0.76 2.38-1.08 1.033-0.313 2.24-0.47 3.62-0.47 1.387 0 2.647 0.307 3.78 0.92 1.133 0.62 1.973 1.337 2.52 2.15 0.553 0.82 0.99 1.853 1.31 3.1 0.313 1.253 0.497 2.253 0.55 3 0.047 0.753 0.07 1.837 0.07 3.25 0 1.42-0.05 2.82-0.15 4.2-0.1 1.387-0.283 2.797-0.55 4.23-0.267 1.433-0.65 2.667-1.15 3.7-0.5 1.033-1.133 1.967-1.9 2.8v0c-1.533 1.667-3.783 2.5-6.75 2.5v0c-1.067 0-2.007-0.16-2.82-0.48-0.82-0.313-1.43-0.687-1.83-1.12v0c-0.833-0.9-1.317-1.7-1.45-2.4v0l-0.05-0.5h-0.4l0.7 4.5v5.65c0 0.367-0.96 0.66-2.88 0.88-1.913 0.213-3.877 0.32-5.89 0.32-2.02 0-3.363-0.09-4.03-0.27-0.667-0.187-1-0.497-1-0.93zM85.35-14.65c0-2.833-0.15-4.817-0.45-5.95-0.3-1.133-0.75-1.7-1.35-1.7-0.6 0-1.033 0.333-1.3 1v0 13.1c0 0.867 0.45 1.3 1.35 1.3v0c1.167 0 1.75-2.583 1.75-7.75zM111.95 0.45v0c-3.733 0-6.34-0.967-7.82-2.9-1.487-1.933-2.23-5.3-2.23-10.1v0-13.6c0-0.667 0.983-1.31 2.95-1.93 1.967-0.613 4.033-0.92 6.2-0.92v0c2.9 0 4.35 0.75 4.35 2.25v0 12.7c0 2.533 0.1 4.373 0.3 5.52 0.2 1.153 0.7 1.73 1.5 1.73v0c1.067 0 1.6-0.45 1.6-1.35v0-18c0-0.7 1.033-1.35 3.1-1.95 2.067-0.6 4.317-0.9 6.75-0.9 2.433 0 3.65 0.65 3.65 1.95v0 25.75c0 0.467-1.05 0.8-3.15 1-2.1 0.2-4.167 0.3-6.2 0.3-2.033 0-3.067-0.267-3.1-0.8v0l-0.5-3.25h-0.4c-0.3 1.2-0.9 2.183-1.8 2.95v0c-0.467 0.4-1.157 0.757-2.07 1.07-0.92 0.32-1.963 0.48-3.13 0.48zM149.3-36.7v0 35.5c0 0.367-0.95 0.657-2.85 0.87-1.9 0.22-3.857 0.33-5.87 0.33-2.02 0-3.32-0.093-3.9-0.28-0.587-0.18-0.88-0.487-0.88-0.92v0-34.6c0-0.733 0.943-1.45 2.83-2.15 1.88-0.7 3.903-1.05 6.07-1.05v0c3.067 0 4.6 0.767 4.6 2.3zM166.4 0.45v0c-5.533 0-9.583-0.533-12.15-1.6v0c-1.3-0.567-1.95-1.117-1.95-1.65v0c0-1.367 0.4-2.967 1.2-4.8 0.8-1.833 1.5-2.75 2.1-2.75v0c0.333 0 1.46 0.367 3.38 1.1 1.913 0.733 3.53 1.1 4.85 1.1 1.313 0 2.18-0.083 2.6-0.25 0.413-0.167 0.62-0.493 0.62-0.98 0-0.48-0.333-0.863-1-1.15-0.667-0.28-1.5-0.47-2.5-0.57-1-0.1-2.073-0.3-3.22-0.6-1.153-0.3-2.23-0.683-3.23-1.15-1-0.467-1.833-1.243-2.5-2.33-0.667-1.08-1-2.247-1-3.5 0-1.247 0.033-2.18 0.1-2.8 0.067-0.613 0.343-1.48 0.83-2.6 0.48-1.113 1.163-2.02 2.05-2.72 0.88-0.7 2.247-1.333 4.1-1.9 1.847-0.567 3.92-0.85 6.22-0.85 2.3 0 4.227 0.073 5.78 0.22 1.547 0.153 2.763 0.347 3.65 0.58 0.88 0.233 1.603 0.5 2.17 0.8v0c0.967 0.5 1.45 1.05 1.45 1.65v0c0 1.3-0.467 2.8-1.4 4.5-0.933 1.7-1.673 2.55-2.22 2.55-0.553 0-1.747-0.293-3.58-0.88-1.833-0.58-3.183-0.87-4.05-0.87v0c-1.4 0-2.1 0.4-2.1 1.2v0c0 0.5 0.477 0.873 1.43 1.12 0.947 0.253 2.087 0.513 3.42 0.78 1.333 0.267 2.677 0.64 4.03 1.12 1.347 0.487 2.497 1.363 3.45 2.63 0.947 1.267 1.42 2.867 1.42 4.8v0c0 6.533-4.65 9.8-13.95 9.8z" fill="#fce44d" fillRule="nonzero" stroke="none" strokeWidth="1" strokeLinecap="butt" strokeLinejoin="miter" strokeMiterlimit="10" strokeDasharray="" strokeDashoffset="0" fontFamily="none" fontWeight="none" fontSize="none" textAnchor="none" style="mix-blend-mode: normal" dataFillPaletteColor="primary" opacity="1"></path><path d="M27.45 47.15c-1 0.733-2.39 1.34-4.17 1.82-1.787 0.487-4.087 0.73-6.9 0.73-2.82 0-5.497-0.233-8.03-0.7-2.533-0.467-4.35-0.983-5.45-1.55-1.1-0.567-1.65-1.117-1.65-1.65v0c0-1.867 0.267-3.81 0.8-5.83 0.533-2.013 1.167-3.02 1.9-3.02v0c0.133 0 1.517 0.45 4.15 1.35 2.633 0.9 4.617 1.35 5.95 1.35 1.333 0 2.2-0.143 2.6-0.43 0.4-0.28 0.6-0.687 0.6-1.22 0-0.533-0.367-1.01-1.1-1.43-0.733-0.413-1.65-0.78-2.75-1.1-1.1-0.313-2.29-0.77-3.57-1.37-1.287-0.6-2.48-1.267-3.58-2-1.1-0.733-2.017-1.777-2.75-3.13-0.733-1.347-1.1-2.887-1.1-4.62v0c0-7.4 4.417-11.1 13.25-11.1v0c3.3 0 6.15 0.207 8.55 0.62 2.4 0.42 4.093 0.887 5.08 1.4 0.98 0.52 1.47 1.03 1.47 1.53v0c0 1.733-0.407 3.6-1.22 5.6-0.82 2-1.613 3-2.38 3v0c-0.133 0-0.567-0.15-1.3-0.45v0c-2.2-0.967-4.023-1.45-5.47-1.45-1.453 0-2.437 0.133-2.95 0.4-0.52 0.267-0.78 0.673-0.78 1.22 0 0.553 0.367 1.003 1.1 1.35 0.733 0.353 1.643 0.67 2.73 0.95 1.08 0.287 2.263 0.72 3.55 1.3 1.28 0.587 2.47 1.27 3.57 2.05 1.1 0.787 2.017 1.897 2.75 3.33 0.733 1.433 1.1 3.1 1.1 5v0c0 2-0.517 3.817-1.55 5.45v0c-0.633 1-1.45 1.867-2.45 2.6zM49.85 49.7v0c-2.5 0-4.65-0.217-6.45-0.65-1.8-0.433-3.433-1.2-4.9-2.3v0c-3.033-2.2-4.55-6.3-4.55-12.3v0c0-5.333 1.55-9.15 4.65-11.45v0c2.9-2.133 6.65-3.2 11.25-3.2v0c1.967 0 3.65 0.09 5.05 0.27 1.4 0.187 2.827 0.58 4.28 1.18 1.447 0.6 2.613 1.417 3.5 2.45 0.88 1.033 1.603 2.457 2.17 4.27 0.567 1.82 0.85 3.98 0.85 6.48v0c0 5.067-1.433 8.873-4.3 11.42-2.867 2.553-6.717 3.83-11.55 3.83zM48.1 39.95c0.233 1.2 0.477 1.917 0.73 2.15 0.247 0.233 0.58 0.35 1 0.35 0.413 0 0.747-0.117 1-0.35 0.247-0.233 0.48-0.95 0.7-2.15 0.213-1.2 0.32-2.71 0.32-4.53 0-1.813-0.04-3.213-0.12-4.2-0.087-0.98-0.187-1.737-0.3-2.27-0.12-0.533-0.28-0.95-0.48-1.25v0c-0.3-0.433-0.657-0.65-1.07-0.65-0.42 0-0.763 0.123-1.03 0.37-0.267 0.253-0.517 0.987-0.75 2.2-0.233 1.22-0.35 2.947-0.35 5.18 0 2.233 0.117 3.95 0.35 5.15zM90.75 32.75h-5.9v15.3c0 0.367-0.917 0.657-2.75 0.87-1.833 0.22-4.083 0.33-6.75 0.33-2.667 0-4-0.4-4-1.2v0-15.3h-2.55c-0.9 0-1.35-1.517-1.35-4.55v0c0-1.2 0.21-2.327 0.63-3.38 0.413-1.047 0.953-1.57 1.62-1.57v0h1.65c0-2.233 0.327-4.183 0.98-5.85 0.647-1.667 1.427-2.943 2.34-3.83 0.92-0.88 2.03-1.587 3.33-2.12v0c1.933-0.8 4.133-1.2 6.6-1.2v0c6.2 0 9.3 1.017 9.3 3.05v0c0 2.2-0.217 4-0.65 5.4-0.433 1.4-1.017 2.1-1.75 2.1v0c-0.3 0-0.857-0.11-1.67-0.33-0.82-0.213-1.597-0.32-2.33-0.32v0c-1.933 0-2.9 0.667-2.9 2v0c0 0.333 0.083 0.7 0.25 1.1v0h6.65c0.9 0 1.35 1.467 1.35 4.4v0c0 1.3-0.19 2.477-0.57 3.53-0.387 1.047-0.897 1.57-1.53 1.57zM110.4 23.4v0 24.65c0 0.367-0.957 0.657-2.87 0.87-1.92 0.22-3.887 0.33-5.9 0.33-2.02 0-3.32-0.093-3.9-0.28-0.587-0.18-0.88-0.487-0.88-0.92v0-23.75c0-0.733 0.943-1.46 2.83-2.18 1.88-0.713 3.937-1.07 6.17-1.07v0c3.033 0 4.55 0.783 4.55 2.35zM103.6 10.25v0c2.2 0 3.927 0.327 5.18 0.98 1.247 0.647 1.87 1.82 1.87 3.52v0c0 3-2.333 4.5-7 4.5-4.667 0-7-1.5-7-4.5 0-3 2.317-4.5 6.95-4.5zM123.65 49.7v0c-3.033 0-5.417-0.717-7.15-2.15v0c-0.7-0.6-1.307-1.483-1.82-2.65-0.52-1.167-0.78-2.533-0.78-4.1 0-1.567 0.377-2.933 1.13-4.1 0.747-1.167 1.653-2.067 2.72-2.7 1.067-0.633 2.317-1.15 3.75-1.55v0c2.167-0.567 4.55-0.85 7.15-0.85v0h1.65c0-1.367-0.467-2.333-1.4-2.9v0c-0.4-0.233-1.007-0.35-1.82-0.35-0.82 0-1.803 0.217-2.95 0.65-1.153 0.433-2.113 0.873-2.88 1.32-0.767 0.453-1.283 0.68-1.55 0.68v0c-0.6 0-1.417-0.793-2.45-2.38-1.033-1.58-1.55-3.02-1.55-4.32v0c0-0.433 0.617-1 1.85-1.7 1.233-0.7 2.977-1.343 5.23-1.93 2.247-0.58 4.437-0.87 6.57-0.87 2.133 0 3.977 0.173 5.53 0.52 1.547 0.353 2.813 0.78 3.8 1.28 0.98 0.5 1.813 1.167 2.5 2 0.68 0.833 1.197 1.583 1.55 2.25 0.347 0.667 0.603 1.533 0.77 2.6v0c0.233 1.233 0.35 2.75 0.35 4.55v0 15.05c0 0.367-0.89 0.657-2.67 0.87-1.787 0.22-3.553 0.33-5.3 0.33-1.753 0-2.887-0.05-3.4-0.15-0.52-0.1-0.83-0.217-0.93-0.35-0.1-0.133-0.183-0.367-0.25-0.7v0l-0.4-2.85h-0.4c-0.833 3-3.117 4.5-6.85 4.5zM130.35 41.4v0-5.85c-0.867 0-1.567 0.367-2.1 1.1-0.533 0.733-0.8 1.567-0.8 2.5v0c0 2.2 0.5 3.3 1.5 3.3v0c0.433 0 0.773-0.11 1.02-0.33 0.253-0.213 0.38-0.453 0.38-0.72z" fill="#fbeaab" fill-rule="nonzero" stroke="none" stroke-width="1" stroke-linecap="butt" stroke-linejoin="miter" stroke-miterlimit="10" stroke-dasharray="" stroke-dashoffset="0" font-family="none" font-weight="none" font-size="none" text-anchor="none" style="mix-blend-mode: normal" data-fill-palette-color="accent" opacity="1"></path></g></svg></g></svg></g></svg></g></svg></g></svg></g><defs></defs></svg><rect width="395.52" height="218.43969722455844" fill="none" stroke="none" visibility="hidden"></rect></g></svg></g></svg>