<?xml version="1.0" standalone="no"?>
<!DOCTYPE svg PUBLIC "-//W3C//DTD SVG 20010904//EN"
 "http://www.w3.org/TR/2001/REC-SVG-20010904/DTD/svg10.dtd">
<svg version="1.0" xmlns="http://www.w3.org/2000/svg"
 width="512.000000pt" height="512.000000pt" viewBox="0 0 512.000000 512.000000"
 preserveAspectRatio="xMidYMid meet">

<g transform="translate(0.000000,512.000000) scale(0.100000,-0.100000)"
fill="#000000" stroke="none">
<path d="M2490 5103 c0 -11 15 -37 34 -59 l33 -39 -30 -18 c-36 -22 -27 -34
28 -39 32 -2 42 -9 58 -36 11 -18 17 -35 14 -38 -3 -3 -33 -9 -67 -14 -70 -10
-75 -13 -67 -35 5 -12 23 -15 85 -15 89 0 184 -15 223 -36 54 -27 197 -371
217 -522 10 -69 -7 -223 -32 -302 -7 -25 -36 -92 -64 -150 -28 -58 -64 -135
-81 -172 -27 -61 -33 -68 -58 -68 -21 0 -42 14 -80 53 -59 60 -78 98 -63 128
6 10 15 19 21 19 6 0 42 10 81 21 97 30 104 48 50 130 -38 58 -39 64 -25 85
16 25 11 44 -13 44 -30 0 -73 31 -105 75 -74 103 -235 120 -387 40 -108 -57
-137 -104 -130 -213 4 -62 12 -87 47 -154 31 -61 41 -91 41 -127 0 -34 7 -58
24 -83 l24 -35 -73 -6 c-40 -4 -133 -18 -206 -33 -115 -22 -151 -25 -259 -21
-148 6 -218 24 -482 128 -97 38 -186 69 -197 69 -31 0 -86 -54 -146 -144 -66
-100 -87 -148 -83 -190 l3 -31 21 39 21 39 6 -51 c3 -28 11 -61 18 -74 11 -20
13 -20 24 -5 12 16 13 16 18 -3 6 -25 27 -27 27 -2 0 9 -5 46 -11 81 -9 61 -9
65 17 103 15 21 31 41 35 44 5 3 14 -16 20 -41 6 -25 15 -48 20 -50 16 -10 39
40 39 87 l0 48 108 -69 c237 -150 240 -152 375 -172 67 -10 239 -23 382 -29
306 -14 316 -17 397 -114 110 -131 217 -329 225 -414 6 -64 -20 -130 -112
-283 -95 -157 -115 -218 -115 -356 0 -91 -4 -116 -31 -191 -50 -144 -63 -151
-299 -168 l-175 -12 -290 -106 c-159 -59 -302 -111 -317 -117 -33 -13 -35 -34
-12 -103 13 -39 15 -59 6 -109 -5 -34 -6 -68 -2 -75 12 -24 152 -130 212 -162
31 -17 66 -44 78 -60 35 -50 82 -160 88 -205 l4 -43 -53 -28 c-30 -15 -115
-53 -189 -84 l-135 -57 -3 -44 c-4 -55 8 -105 60 -235 31 -80 50 -112 79 -139
49 -44 78 -51 154 -36 80 16 128 9 296 -45 190 -60 261 -68 629 -68 347 -1
443 10 544 61 28 14 80 36 116 50 36 13 72 34 81 45 22 28 101 40 221 32 l97
-7 21 -63 c20 -59 24 -64 51 -64 18 0 33 7 41 20 10 15 24 20 60 20 26 0 59 5
73 10 33 13 31 22 -26 163 -25 62 -39 110 -37 130 3 29 7 32 53 42 28 5 55 13
61 17 6 4 17 36 23 70 7 35 53 183 102 330 97 289 119 380 119 494 0 97 19
180 87 373 45 128 56 174 63 256 7 92 12 107 56 193 l49 94 0 136 c-1 113 -5
151 -24 217 -43 148 -133 311 -232 420 -58 63 -77 71 -117 51 -59 -31 -172
-238 -191 -351 -14 -80 -38 -139 -71 -173 -35 -37 -209 -163 -246 -178 -18 -8
-46 -14 -61 -14 -47 -1 -106 -34 -155 -89 -54 -59 -49 -64 -67 64 -39 270 -33
509 20 745 l30 135 -40 77 c-27 51 -41 91 -41 116 0 21 18 96 41 167 44 143
60 234 85 493 15 162 15 176 -1 225 -42 129 -206 422 -307 546 -50 63 -97 90
-188 110 -90 21 -92 22 -150 75 -83 78 -90 82 -90 59z"/>
</g>
</svg>
