<?xml version="1.0" standalone="no"?>
<!DOCTYPE svg PUBLIC "-//W3C//DTD SVG 20010904//EN"
 "http://www.w3.org/TR/2001/REC-SVG-20010904/DTD/svg10.dtd">
<svg version="1.0" xmlns="http://www.w3.org/2000/svg"
 width="512.000000pt" height="512.000000pt" viewBox="0 0 512.000000 512.000000"
 preserveAspectRatio="xMidYMid meet">

<g transform="translate(0.000000,512.000000) scale(0.100000,-0.100000)"
fill="#000000" stroke="none">
<path d="M2468 5095 c-97 -32 -114 -53 -123 -143 -3 -37 -8 -87 -11 -111 l-6
-44 -24 59 c-34 83 -51 103 -134 154 -69 42 -78 45 -144 45 -44 0 -88 -7 -117
-18 -61 -23 -137 -104 -182 -193 -19 -38 -45 -78 -57 -89 -51 -45 -63 -121
-31 -192 22 -48 70 -82 149 -108 62 -20 72 -37 72 -125 0 -54 -13 -87 -172
-441 l-172 -384 -4 -90 c-5 -120 4 -134 79 -117 29 7 83 28 119 46 l67 34 11
-32 c7 -18 41 -60 77 -94 36 -35 65 -71 65 -82 0 -93 -339 -1163 -456 -1440
-38 -89 -58 -120 -130 -205 -156 -181 -184 -237 -310 -608 -53 -155 -107 -304
-122 -330 -30 -56 -69 -97 -205 -221 -54 -49 -105 -100 -114 -113 -23 -35 -20
-151 7 -202 23 -45 49 -57 106 -46 71 13 103 37 166 124 34 48 92 123 129 168
54 67 72 97 94 165 70 211 185 396 469 752 l111 138 7 -33 c3 -19 12 -172 18
-341 12 -339 14 -350 85 -504 24 -52 49 -110 54 -129 13 -47 -4 -113 -38 -150
-95 -102 -90 -105 185 -105 l223 0 6 55 c4 31 4 129 1 218 -6 141 -4 173 13
252 40 175 110 524 160 790 29 149 55 278 59 287 5 13 42 -44 142 -220 171
-300 216 -368 292 -437 l62 -56 0 -127 c1 -141 2 -139 -96 -307 -50 -86 -63
-145 -70 -315 -3 -69 -1 -75 18 -78 16 -2 25 8 44 48 l24 51 23 -92 c31 -128
34 -130 184 -139 127 -9 142 -7 172 18 27 24 21 38 -33 71 -84 52 -82 43 -65
317 8 131 15 259 15 283 0 34 3 42 15 37 8 -3 187 -117 397 -254 211 -137 388
-252 395 -256 7 -3 28 0 47 8 30 13 35 13 40 -1 17 -43 -5 -75 -59 -87 -16 -4
-41 -14 -53 -22 -22 -15 -23 -17 -7 -34 25 -28 107 -42 202 -34 79 6 85 9 113
41 41 46 76 118 95 195 16 63 17 65 58 76 38 10 47 19 90 90 26 44 47 89 47
101 0 22 -2 23 -130 95 -108 61 -118 70 -100 91 7 8 11 17 9 19 -13 12 -94 47
-154 66 -38 13 -88 32 -110 43 -64 32 -364 228 -543 354 -139 98 -163 119
-159 137 3 11 30 93 61 180 71 208 76 242 42 301 -34 57 -116 159 -251 310
-59 66 -111 130 -115 142 -5 13 -3 64 7 130 19 134 13 192 -32 331 -26 81 -35
126 -35 177 0 117 38 224 101 282 13 12 70 53 127 91 l103 70 70 -43 c91 -56
149 -70 223 -55 97 20 141 91 122 194 -4 18 -52 125 -107 236 l-100 203 22 83
c16 60 19 92 14 121 -5 21 -9 67 -9 103 -1 61 -2 65 -26 68 -13 2 -30 13 -38
23 -19 27 -30 24 -71 -20 -23 -26 -46 -41 -66 -43 -25 -3 -34 -12 -58 -60
l-29 -57 -116 41 c-164 57 -222 89 -275 149 -56 64 -107 161 -107 204 0 18 14
59 30 90 29 55 41 131 23 149 -5 4 -8 54 -8 111 0 126 -10 144 -109 195 -91
46 -169 51 -278 15z m-67 -631 c54 -113 55 -123 21 -207 -18 -47 -41 -57 -133
-57 l-69 0 0 65 c0 64 1 66 35 86 29 17 38 32 54 84 11 35 23 79 26 99 4 20 9
36 12 36 2 0 27 -48 54 -106z"/>
</g>
</svg>
