<?xml version="1.0" standalone="no"?>
<!DOCTYPE svg PUBLIC "-//W3C//DTD SVG 20010904//EN"
 "http://www.w3.org/TR/2001/REC-SVG-20010904/DTD/svg10.dtd">
<svg version="1.0" xmlns="http://www.w3.org/2000/svg"
 width="512.000000pt" height="512.000000pt" viewBox="0 0 512.000000 512.000000"
 preserveAspectRatio="xMidYMid meet">

<g transform="translate(0.000000,512.000000) scale(0.100000,-0.100000)"
fill="#000000" stroke="none">
<path d="M1327 5113 c-40 -3 -60 -9 -64 -19 -6 -17 20 -49 59 -74 l27 -16 -39
-39 c-73 -72 -47 -81 108 -39 94 26 95 26 121 7 14 -11 40 -45 57 -77 26 -48
30 -65 26 -110 -4 -47 0 -58 32 -109 54 -84 52 -93 -59 -291 -46 -82 -74 -146
-90 -209 -35 -129 -59 -157 -114 -128 -16 9 -16 17 -3 113 15 118 11 186 -17
278 -36 115 -100 170 -199 170 -210 0 -310 -162 -253 -411 26 -115 47 -151
100 -175 36 -16 41 -22 41 -50 0 -18 -5 -36 -11 -40 -6 -3 -61 18 -122 49 -81
39 -139 77 -208 136 -132 110 -151 134 -138 169 6 15 11 53 10 85 -2 58 -1 60
44 99 40 35 45 44 45 82 0 39 5 46 108 147 59 59 142 130 184 159 83 56 158
130 158 155 0 23 -14 18 -66 -25 -27 -22 -53 -40 -59 -40 -5 0 -23 25 -39 55
-24 47 -33 55 -56 55 -36 0 -86 -56 -159 -175 -45 -72 -71 -101 -173 -187 -93
-79 -141 -129 -208 -218 -99 -132 -120 -167 -120 -208 0 -53 179 -320 277
-414 22 -20 71 -50 115 -68 65 -26 92 -46 162 -113 46 -45 93 -100 104 -122
28 -57 194 -277 233 -310 36 -30 50 -37 159 -74 68 -24 77 -30 95 -66 14 -29
19 -61 19 -115 1 -66 -5 -90 -51 -210 -93 -246 -98 -306 -42 -500 18 -64 29
-126 29 -164 0 -116 -53 -485 -146 -1016 -69 -399 -70 -406 -89 -653 -9 -115
-22 -224 -30 -248 -16 -43 -19 -98 -9 -136 l6 -23 304 0 c323 0 387 7 432 45
22 19 24 25 14 38 -8 9 -36 21 -64 27 -74 15 -135 45 -142 68 -12 36 60 550
195 1397 72 450 100 598 144 765 68 260 87 518 51 690 -29 140 -85 347 -110
409 -13 32 -51 103 -86 157 -62 99 -62 99 -57 159 6 61 49 251 132 585 25 102
48 210 52 242 5 52 3 61 -32 125 -86 154 -142 226 -197 257 -29 16 -83 58
-120 92 l-66 64 -74 -2 c-40 -1 -99 -3 -131 -5z"/>
<path d="M2591 4988 c-111 -88 -149 -112 -169 -110 -20 2 -48 -14 -112 -65
-84 -67 -86 -69 -152 -203 -86 -174 -198 -451 -198 -490 0 -34 59 -202 161
-458 38 -95 69 -179 69 -187 0 -8 -18 -59 -41 -113 -22 -53 -43 -117 -46 -142
-3 -25 7 -129 22 -235 24 -167 26 -209 20 -345 -7 -171 7 -373 49 -695 14
-104 28 -248 31 -320 12 -229 -21 -926 -55 -1155 -11 -75 -10 -77 79 -112 45
-18 77 -22 168 -22 l112 -1 15 -33 c26 -53 20 -67 -49 -127 -36 -32 -65 -61
-65 -66 0 -5 76 -9 168 -9 l168 0 44 45 c24 25 47 45 50 45 3 0 13 -14 22 -30
29 -51 52 -40 72 33 l17 64 59 -1 c67 -1 92 14 73 42 -19 27 -73 119 -73 124
0 3 26 10 58 17 86 19 234 70 260 89 l22 17 -25 75 c-32 94 -115 373 -115 388
0 6 66 57 148 113 668 467 1213 874 1242 929 6 10 10 43 10 72 0 29 3 83 6
119 l7 67 79 37 c87 40 148 88 148 114 0 30 -80 160 -136 220 -30 33 -101 99
-157 148 -56 48 -130 113 -165 145 -86 79 -113 92 -182 85 -31 -3 -72 -13 -91
-23 -27 -15 -62 -19 -167 -22 -153 -5 -373 12 -430 31 -22 8 -105 54 -184 103
-113 71 -163 109 -240 186 -93 93 -132 118 -188 118 -8 0 -31 5 -51 10 -31 9
-40 18 -58 60 -23 54 -28 110 -8 110 6 0 32 -14 56 -30 27 -18 57 -30 77 -30
48 0 64 29 64 113 0 42 8 91 21 130 11 34 23 85 26 113 11 108 -66 178 -239
215 -74 16 -113 5 -165 -48 -46 -45 -96 -73 -132 -73 -27 0 -34 -15 -21 -40 9
-17 7 -34 -11 -85 -27 -72 -23 -82 43 -116 22 -11 41 -26 45 -34 16 -43 -39
-121 -93 -131 -49 -9 -80 10 -122 76 -20 30 -51 71 -69 91 -18 19 -49 72 -68
118 -19 45 -53 108 -75 138 -22 31 -40 67 -40 80 0 20 53 170 64 181 2 1 16
-2 32 -8 101 -39 281 -30 389 19 78 36 185 137 227 217 70 131 76 278 16 419
-25 59 -84 155 -96 155 -5 0 -73 -51 -151 -112z m321 -1807 c13 -5 67 -45 121
-89 106 -86 79 -74 387 -169 l125 -39 -145 -13 c-240 -21 -525 -63 -696 -104
l-61 -15 -7 83 c-8 96 -3 114 61 204 94 135 146 169 215 142z"/>
</g>
</svg>
